<svg width="69" height="35" viewBox="0 0 69 35" fill="none" xmlns="http://www.w3.org/2000/svg">
<g filter="url(#filter0_d_517_528)">
<path d="M4.45374 25.7472V0.706514H10.9784C13.6473 0.706514 15.6632 1.25686 17.0261 2.35755C18.4003 3.44677 19.0874 5.03474 19.0874 7.12147C19.0874 8.63491 18.7069 9.89039 17.946 10.8879C17.1851 11.8854 16.1118 12.5217 14.7263 12.7969C16.2935 13.0033 17.5996 13.6912 18.6445 14.8607C19.6893 16.0187 20.2118 17.3487 20.2118 18.8507C20.2118 20.9833 19.5247 22.6687 18.1504 23.907C16.7876 25.1338 14.8853 25.7472 12.4435 25.7472H4.45374ZM5.37366 13.3816V24.8185H12.5457C14.6468 24.8185 16.2935 24.2968 17.486 23.2534C18.6899 22.1986 19.2918 20.7425 19.2918 18.8851C19.2918 17.3028 18.7126 16.0015 17.5542 14.9811C16.3958 13.9492 14.8455 13.416 12.9034 13.3816H5.37366ZM5.37366 12.4529H11.3191C13.5792 12.4529 15.2828 12.0172 16.4298 11.1459C17.5769 10.263 18.1504 8.89862 18.1504 7.05267C18.1504 3.49837 15.8279 1.69255 11.1828 1.63522H5.37366V12.4529Z" fill="white"/>
<path d="M43.0737 15.1015C43.0737 17.2684 42.6875 19.1889 41.9152 20.8629C41.1543 22.5254 40.064 23.8152 38.6444 24.7325C37.2247 25.6383 35.5893 26.0912 33.7381 26.0912C30.9443 26.0912 28.6842 25.0879 26.9579 23.0815C25.2316 21.075 24.3685 18.3691 24.3685 14.9639V11.3522C24.3685 9.19672 24.7489 7.28198 25.5099 5.60802C26.2821 3.93405 27.3781 2.64419 28.7978 1.73841C30.2288 0.821169 31.8642 0.362549 33.704 0.362549C35.5552 0.362549 37.1907 0.821169 38.6103 1.73841C40.0413 2.64419 41.143 3.93979 41.9152 5.62522C42.6875 7.29918 43.0737 9.20819 43.0737 11.3522V15.1015ZM42.1537 11.3178C42.1537 8.29095 41.3928 5.86599 39.871 4.04298C38.3491 2.2085 36.2935 1.29126 33.704 1.29126C31.1487 1.29126 29.1101 2.20276 27.5882 4.02578C26.0664 5.83733 25.3054 8.30815 25.3054 11.4382V15.1015C25.3054 17.0965 25.6461 18.8621 26.3276 20.3985C27.0204 21.9234 28.0028 23.0987 29.2748 23.9242C30.5468 24.7497 32.0345 25.1624 33.7381 25.1624C36.3275 25.1624 38.3775 24.2509 39.888 22.4279C41.3985 20.6049 42.1537 18.1169 42.1537 14.9639V11.3178Z" fill="white"/>
<path d="M55.3734 12.2465L63.3802 0.706514H64.5387L55.9527 12.9689L64.8623 25.7472H63.7209L55.3734 13.6912L46.9919 25.7472H45.8846L54.7942 12.9689L46.2082 0.706514H47.3667L55.3734 12.2465Z" fill="white"/>
</g>
<defs>
<filter id="filter0_d_517_528" x="0.453735" y="0.362549" width="68.4086" height="33.7285" filterUnits="userSpaceOnUse" color-interpolation-filters="sRGB">
<feFlood flood-opacity="0" result="BackgroundImageFix"/>
<feColorMatrix in="SourceAlpha" type="matrix" values="0 0 0 0 0 0 0 0 0 0 0 0 0 0 0 0 0 0 127 0" result="hardAlpha"/>
<feOffset dy="4"/>
<feGaussianBlur stdDeviation="2"/>
<feComposite in2="hardAlpha" operator="out"/>
<feColorMatrix type="matrix" values="0 0 0 0 0 0 0 0 0 0 0 0 0 0 0 0 0 0 0.25 0"/>
<feBlend mode="normal" in2="BackgroundImageFix" result="effect1_dropShadow_517_528"/>
<feBlend mode="normal" in="SourceGraphic" in2="effect1_dropShadow_517_528" result="shape"/>
</filter>
</defs>
</svg>
