<svg width="129" height="35" viewBox="0 0 129 35" fill="none" xmlns="http://www.w3.org/2000/svg">
<g filter="url(#filter0_d_517_527)">
<path d="M20.0136 21.0865H11.8194L10.3884 25.7644H4L13.0971 0.723712H18.7188L27.884 25.7644H21.4616L20.0136 21.0865ZM13.2504 16.4257H18.5826L15.908 7.74061L13.2504 16.4257Z" fill="#656980"/>
<path d="M49.4001 17.2856C49.3206 19.0284 48.855 20.5705 48.0032 21.912C47.1514 23.242 45.9532 24.2739 44.4087 25.0077C42.8755 25.7415 41.1208 26.1084 39.1446 26.1084C35.8851 26.1084 33.3184 25.0363 31.4445 22.8923C29.5706 20.7482 28.6336 17.7213 28.6336 13.8116V12.5733C28.6336 10.1197 29.0538 7.97565 29.8943 6.14117C30.746 4.29522 31.9669 2.8735 33.5569 1.876C35.1469 0.867031 36.9868 0.362549 39.0765 0.362549C42.0861 0.362549 44.5052 1.16513 46.3337 2.77031C48.1622 4.36401 49.2014 6.56539 49.4512 9.37444H43.4887C43.4433 7.84953 43.0629 6.75457 42.3474 6.08957C41.6319 5.42457 40.5416 5.09207 39.0765 5.09207C37.5887 5.09207 36.4984 5.65388 35.8056 6.7775C35.1129 7.90112 34.7494 9.69548 34.7154 12.1606V13.932C34.7154 16.6034 35.0447 18.5125 35.7034 19.659C36.3735 20.8056 37.5206 21.3788 39.1446 21.3788C40.5189 21.3788 41.5694 21.0521 42.2962 20.3985C43.0231 19.745 43.4092 18.7074 43.4547 17.2856H49.4001Z" fill="#656980"/>
<path d="M71.1888 5.38444H63.7442V25.7644H57.7647V5.38444H50.4563V0.723712H71.1888V5.38444Z" fill="#656980"/>
<path d="M80.0985 25.7644H74.136V0.723712H80.0985V25.7644Z" fill="#656980"/>
<path d="M93.8803 18.9539L98.8207 0.723712H105.499L97.1512 25.7644H90.6095L82.3301 0.723712H88.957L93.8803 18.9539Z" fill="#656980"/>
<path d="M122.705 15.1531H113.301V21.1209H124.408V25.7644H107.322V0.723712H124.442V5.38444H113.301V10.6643H122.705V15.1531Z" fill="#656980"/>
</g>
<defs>
<filter id="filter0_d_517_527" x="0" y="0.362549" width="128.442" height="33.7458" filterUnits="userSpaceOnUse" color-interpolation-filters="sRGB">
<feFlood flood-opacity="0" result="BackgroundImageFix"/>
<feColorMatrix in="SourceAlpha" type="matrix" values="0 0 0 0 0 0 0 0 0 0 0 0 0 0 0 0 0 0 127 0" result="hardAlpha"/>
<feOffset dy="4"/>
<feGaussianBlur stdDeviation="2"/>
<feComposite in2="hardAlpha" operator="out"/>
<feColorMatrix type="matrix" values="0 0 0 0 0 0 0 0 0 0 0 0 0 0 0 0 0 0 0.25 0"/>
<feBlend mode="normal" in2="BackgroundImageFix" result="effect1_dropShadow_517_527"/>
<feBlend mode="normal" in="SourceGraphic" in2="effect1_dropShadow_517_527" result="shape"/>
</filter>
</defs>
</svg>
